<svg width="36" height="34" viewBox="0 0 36 34" fill="none" xmlns="http://www.w3.org/2000/svg">
<path d="M18 18.4168C17.5433 18.4118 17.096 18.539 16.7182 18.7813C16.3404 19.0237 16.0502 19.3695 15.8868 19.7723C15.7234 20.1751 15.6946 20.6155 15.8042 21.0342C15.9138 21.4529 16.1567 21.8299 16.5 22.1143V24.0835C16.5 24.4592 16.658 24.8196 16.9393 25.0852C17.2206 25.3509 17.6022 25.5002 18 25.5002C18.3978 25.5002 18.7794 25.3509 19.0607 25.0852C19.342 24.8196 19.5 24.4592 19.5 24.0835V22.1143C19.8433 21.8299 20.0861 21.4529 20.1958 21.0342C20.3054 20.6155 20.2766 20.1751 20.1132 19.7723C19.9498 19.3695 19.6596 19.0237 19.2818 18.7813C18.904 18.539 18.4567 18.4118 18 18.4168ZM25.5 12.7502V9.91683C25.5 8.03821 24.7098 6.23654 23.3033 4.90816C21.8968 3.57977 19.9891 2.8335 18 2.8335C16.0109 2.8335 14.1032 3.57977 12.6967 4.90816C11.2902 6.23654 10.5 8.03821 10.5 9.91683V12.7502C9.30653 12.7502 8.16193 13.1979 7.31802 13.995C6.47411 14.792 6 15.873 6 17.0002V26.9168C6 28.044 6.47411 29.125 7.31802 29.922C8.16193 30.7191 9.30653 31.1668 10.5 31.1668H25.5C26.6935 31.1668 27.8381 30.7191 28.682 29.922C29.5259 29.125 30 28.044 30 26.9168V17.0002C30 15.873 29.5259 14.792 28.682 13.995C27.8381 13.1979 26.6935 12.7502 25.5 12.7502ZM13.5 9.91683C13.5 8.78966 13.9741 7.70866 14.818 6.91163C15.6619 6.1146 16.8065 5.66683 18 5.66683C19.1935 5.66683 20.3381 6.1146 21.182 6.91163C22.0259 7.70866 22.5 8.78966 22.5 9.91683V12.7502H13.5V9.91683ZM27 26.9168C27 27.2926 26.842 27.6529 26.5607 27.9186C26.2794 28.1842 25.8978 28.3335 25.5 28.3335H10.5C10.1022 28.3335 9.72064 28.1842 9.43934 27.9186C9.15804 27.6529 9 27.2926 9 26.9168V17.0002C9 16.6244 9.15804 16.2641 9.43934 15.9984C9.72064 15.7328 10.1022 15.5835 10.5 15.5835H25.5C25.8978 15.5835 26.2794 15.7328 26.5607 15.9984C26.842 16.2641 27 16.6244 27 17.0002V26.9168Z" fill="white"/>
</svg>
